<svg version="1.1" viewBox="0 0 20 20" xmlns="http://www.w3.org/2000/svg"><circle cx="10" cy="10" r="9.2" fill="none" stroke="#fff"/><path d="m14.4 6c-0.8-0.4-1.7-0.7-2.6-0.8-0.1 0.2-0.2 0.4-0.3 0.7-1-0.1-1.9-0.1-2.9 0-0.1-0.3-0.3-0.5-0.4-0.7-0.9 0.1-1.8 0.4-2.6 0.8-1.6 2.4-2.1 4.8-1.9 7.2 1 0.7 2 1.2 3.2 1.6 0.2-0.3 0.5-0.7 0.6-1.1v-0.1c-0.3-0.1-0.7-0.3-1-0.5v-0.1c0.1 0 0.1-0.1 0.2-0.2 2.1 0.9 4.3 0.9 6.4 0l0.2 0.2v0.1c-0.3 0.2-0.6 0.3-1 0.5v0.1c0.2 0.4 0.4 0.7 0.6 1.1 1.1-0.3 2.2-0.9 3.2-1.6 0.4-2.7-0.3-5.1-1.7-7.2zm-6.5 5.8c-0.6 0-1.1-0.6-1.1-1.3s0.5-1.3 1.1-1.3 1.1 0.6 1.1 1.3-0.5 1.3-1.1 1.3zm4.2 0c-0.6 0-1.1-0.6-1.1-1.3s0.5-1.3 1.1-1.3 1.1 0.6 1.1 1.3-0.5 1.3-1.1 1.3z" fill="#fff"/></svg>
