<?xml version="1.0" encoding="UTF-8" standalone="no"?>
<!-- Generator: Adobe Illustrator 23.1.1, SVG Export Plug-In . SVG Version: 6.00 Build 0)  -->

<svg
   version="1.1"
   id="图层_1"
   x="0px"
   y="0px"
   viewBox="0 0 500 100"
   xml:space="preserve"
   sodipodi:docname="logo-w-full.svg"
   width="500"
   height="100"
   inkscape:version="1.2.1 (9c6d41e410, 2022-07-14)"
   xmlns:inkscape="http://www.inkscape.org/namespaces/inkscape"
   xmlns:sodipodi="http://sodipodi.sourceforge.net/DTD/sodipodi-0.dtd"
   xmlns="http://www.w3.org/2000/svg"
   xmlns:svg="http://www.w3.org/2000/svg"><defs
   id="defs294" /><sodipodi:namedview
   id="namedview292"
   pagecolor="#ffffff"
   bordercolor="#000000"
   borderopacity="0.25"
   inkscape:showpageshadow="2"
   inkscape:pageopacity="0.0"
   inkscape:pagecheckerboard="0"
   inkscape:deskcolor="#d1d1d1"
   showgrid="false"
   inkscape:zoom="2.758"
   inkscape:cx="250"
   inkscape:cy="52.574329"
   inkscape:window-width="1920"
   inkscape:window-height="974"
   inkscape:window-x="-11"
   inkscape:window-y="-11"
   inkscape:window-maximized="1"
   inkscape:current-layer="图层_1" />
<style
   type="text/css"
   id="style269">
	.st0{fill:#18499D;}
	.st1{fill-rule:evenodd;clip-rule:evenodd;fill:#18499D;}
</style>
<g
   id="g289"
   transform="translate(0,-2)"
   style="fill:#ffffff">
	<path
   class="st0"
   d="m 153.2,27.1 h -16 v 49 h -11.1 v -49 h -15.9 v -9.7 h 43 z"
   id="path271"
   style="fill:#ffffff" />
	<path
   class="st0"
   d="m 180.6,17.4 c 17.1,0 28.5,4.9 28.5,29.4 0,22.7 -11.4,29.4 -28.5,29.4 h -19 V 17.4 Z m -0.5,49.1 c 11.3,0 17.6,-4.3 17.6,-19.8 0,-16.3 -6.5,-20 -17.6,-20 h -7.4 v 39.8 z"
   id="path273"
   style="fill:#ffffff" />
	<path
   class="st0"
   d="m 259.4,55.3 -30,2 c 0.2,7.7 4,11.2 13.1,11.2 5.1,-0.1 10.2,-1.1 14.9,-3.1 V 74 c -2.7,1.6 -9.3,3 -16.8,3 -13.9,0 -21.9,-5.2 -21.9,-23.7 0,-18.5 8,-23.7 21.9,-23.7 15.8,0 19.1,9 19.1,19.7 0.1,2 0,4 -0.3,6 z M 250,48.2 c 0,-5.7 -1.2,-10.5 -9.3,-10.5 -8.5,0 -11,4.1 -11.3,12 z"
   id="path275"
   style="fill:#ffffff" />
	<path
   class="st0"
   d="M 310.8,44.8 V 76.1 H 300.2 V 47.8 c 0,-6.4 -1.4,-9.4 -7.9,-9.4 -5.4,0 -9.2,1.5 -11.2,7.3 V 76.2 H 270.5 V 30.4 h 10.6 v 5.8 c 2.6,-4.7 8,-6.6 14.4,-6.6 11.6,0 15.3,5.5 15.3,15.2 z"
   id="path277"
   style="fill:#ffffff" />
	<path
   class="st0"
   d="m 364.8,30.4 v 42.2 c 0,12.6 -6.5,20.4 -24.3,20.4 -4.1,0 -8.3,-0.4 -12.4,-1.1 v -8.5 c 3.9,0.9 7.8,1.3 11.8,1.3 10.1,0 14.4,-3.3 14.4,-12.5 V 69 c -2,4.5 -5.7,7.2 -14.1,7.2 -15,0 -18.7,-9.4 -18.7,-23.3 0,-12.6 3.7,-23.3 18.7,-23.3 8.6,0 12.4,3.1 14.1,7.5 v -6.7 z m -10.1,22.4 c 0,-9.2 -2,-15.1 -11.9,-15.1 -9.4,0 -10.4,7.3 -10.4,15.1 0,8.5 1.3,15.3 10.4,15.3 9.9,0.1 11.9,-5.5 11.9,-15.3 z"
   id="path279"
   style="fill:#ffffff" />
	<path
   class="st0"
   d="m 377.3,17.6 c 0,-5.2 1.3,-5.7 6,-5.7 4.7,0 6,0.5 6,5.7 0,5.2 -1.3,5.8 -6,5.8 -4.7,0 -6,-0.7 -6,-5.8 z m 0.7,12.8 h 10.6 V 76.1 H 378 Z"
   id="path281"
   style="fill:#ffffff" />
	<path
   class="st0"
   d="M 442,44.8 V 76.1 H 431.5 V 47.8 c 0,-6.4 -1.4,-9.4 -7.9,-9.4 -5.4,0 -9.2,1.5 -11.2,7.3 V 76.2 H 401.8 V 30.4 h 10.6 v 5.8 c 2.6,-4.7 8,-6.6 14.4,-6.6 11.5,0 15.2,5.5 15.2,15.2 z"
   id="path283"
   style="fill:#ffffff" />
	<path
   class="st0"
   d="m 493.3,55.3 -30,2 c 0.3,7.7 4,11.2 13.1,11.2 5.1,-0.1 10.2,-1.1 14.9,-3.1 V 74 c -2.7,1.6 -9.3,3 -16.8,3 -13.9,0 -21.9,-5.2 -21.9,-23.7 0,-18.5 8,-23.7 21.9,-23.7 15.8,0 19.1,9 19.1,19.7 0.2,2 0,4 -0.3,6 z m -9.4,-7.1 c 0,-5.7 -1.2,-10.5 -9.3,-10.5 -8.5,0 -11,4.1 -11.3,12 z"
   id="path285"
   style="fill:#ffffff" />
	<path
   class="st1"
   d="m 48.8,11.8 c 3.1,0 5.6,2.5 5.6,5.6 0,3.1 -2.5,5.6 -5.6,5.6 -3.1,0 -5.6,-2.5 -5.6,-5.6 v 0 c 0.1,-3.1 2.5,-5.6 5.6,-5.6 z m -37,26.7 c 3.1,0 5.6,2.5 5.6,5.6 0,3.1 -2.5,5.6 -5.6,5.6 -3.1,0 -5.6,-2.5 -5.6,-5.6 0.1,-3.1 2.6,-5.6 5.6,-5.6 z m 14.5,43.6 c 3.1,0 5.6,2.5 5.6,5.6 0,3.1 -2.5,5.6 -5.6,5.6 -3.1,0 -5.6,-2.5 -5.6,-5.6 0,-3.1 2.5,-5.6 5.6,-5.6 z m 45,0 c 3.1,0 5.6,2.5 5.6,5.6 0,3.1 -2.5,5.6 -5.6,5.6 -3.1,0 -5.6,-2.5 -5.6,-5.6 0,-3.1 2.5,-5.6 5.6,-5.6 z M 57,44.9 H 40.6 L 35.6,60.4 48.8,70 62,60.5 Z M 41.1,43.6 46.8,26 c -0.4,-0.1 -0.9,-0.2 -1.3,-0.4 l -5.8,18 h -19 c 0,0.2 0,0.3 0,0.5 0,0.3 0,0.6 0,0.8 h 18.5 l -4.8,14.7 -15,-10.9 c -0.2,0.4 -0.5,0.7 -0.8,1.1 l 12.8,9.3 v 0 L 34,61 33.1,63.5 v 0 l -5,15.5 c 0.4,0.1 0.9,0.2 1.3,0.4 L 35.1,61.9 47.6,71 32.9,81.7 c 0.3,0.3 0.6,0.7 0.8,1 l 15.1,-11 15.1,11 c 0.2,-0.4 0.5,-0.7 0.8,-1 L 49.9,70.9 62.4,61.8 63,63.5 v 0 l 5.2,15.9 C 68.6,79.2 69,79.1 69.5,79 L 63.7,61 66.3,59.1 79,49.8 c -0.3,-0.3 -0.5,-0.7 -0.8,-1.1 l -12.4,9 -0.4,0.3 -2.3,1.6 -4.8,-14.7 h 18.5 c 0,-0.3 0,-0.6 0,-0.9 0,-0.2 0,-0.3 0,-0.5 h -19 L 52,25.5 c -0.4,0.2 -0.8,0.3 -1.3,0.4 l 5.7,17.6 z m -22.2,-5 22.5,-16.4 c 0.2,0.4 0.5,0.7 0.8,1 L 19.6,39.7 C 19.4,39.3 19.1,39 18.9,38.6 Z m 4,40.8 -8.7,-26.8 c 0.4,-0.1 0.8,-0.3 1.2,-0.4 L 24.2,79 c -0.5,0.1 -0.9,0.3 -1.3,0.4 z M 62.5,88 H 35.2 c 0,-0.1 0,-0.2 0,-0.4 0,-0.3 0,-0.6 0,-1 h 27.3 c 0,0.3 0,0.6 0,1 -0.1,0.2 -0.1,0.3 0,0.4 z m 21,-35.3 -8.7,26.8 C 74.4,79.3 74,79.2 73.6,79.1 l 8.7,-26.8 c 0.3,0.1 0.7,0.3 1.2,0.4 z M 56.3,22.2 78.8,38.6 c -0.3,0.3 -0.5,0.7 -0.7,1.1 L 55.4,23.3 c 0.3,-0.4 0.6,-0.7 0.9,-1.1 z m 29.5,16.3 c 3.1,0 5.6,2.5 5.6,5.6 0,3.1 -2.5,5.6 -5.6,5.6 -3.1,0 -5.6,-2.5 -5.6,-5.6 0,-3.1 2.5,-5.6 5.6,-5.6 z"
   id="path287"
   style="fill:#ffffff" />
</g>
</svg>
