<svg version="1.1" viewBox="0 0 20 20" xmlns="http://www.w3.org/2000/svg"><circle cx="10" cy="10" r="9.2" fill="none" stroke="#fff"/><path d="m10 4.3c-3.1 0-5.7 2.6-5.7 5.8 0 2.6 1.6 4.8 3.9 5.5h0.1c0.2 0 0.3-0.2 0.3-0.3v-1c-0.2 0-0.4 0.1-0.6 0.1-1.1 0-1.3-0.9-1.3-0.9-0.3-0.5-0.7-0.7-0.7-0.7-0.5-0.3 0-0.4 0-0.4 0.6 0.1 0.9 0.6 0.9 0.6 0.3 0.5 0.7 0.6 1 0.6s0.5-0.1 0.7-0.2c0.1-0.4 0.2-0.6 0.4-0.8-1.3-0.1-2.6-0.6-2.6-2.9 0-0.6 0.2-1.2 0.6-1.6-0.1 0-0.3-0.6 0-1.4h0.1c0.2 0 0.7 0.1 1.4 0.6 0.5-0.1 1-0.2 1.5-0.2s1 0.1 1.4 0.2c0.8-0.5 1.2-0.6 1.4-0.6h0.1c0.3 0.8 0.1 1.4 0.1 1.5 0.4 0.4 0.6 0.9 0.6 1.6 0 2.2-1.3 2.7-2.6 2.9 0.2 0.2 0.4 0.5 0.4 1.1v1.6c0 0.1 0.1 0.3 0.3 0.3h0.1c2.3-0.8 3.9-3 3.9-5.5 0-3.3-2.6-5.9-5.7-5.9z" fill="#fff"/></svg>
