<svg version="1.1" viewBox="0 0 500 100" xmlns="http://www.w3.org/2000/svg"><g transform="translate(0,-2)" fill="#fff"><path d="m153.2 27.1h-16v49h-11.1v-49h-15.9v-9.7h43z"/><path d="m180.6 17.4c17.1 0 28.5 4.9 28.5 29.4 0 22.7-11.4 29.4-28.5 29.4h-19v-58.8zm-0.5 49.1c11.3 0 17.6-4.3 17.6-19.8 0-16.3-6.5-20-17.6-20h-7.4v39.8z"/><path d="m259.4 55.3-30 2c0.2 7.7 4 11.2 13.1 11.2 5.1-0.1 10.2-1.1 14.9-3.1v8.6c-2.7 1.6-9.3 3-16.8 3-13.9 0-21.9-5.2-21.9-23.7s8-23.7 21.9-23.7c15.8 0 19.1 9 19.1 19.7 0.1 2 0 4-0.3 6zm-9.4-7.1c0-5.7-1.2-10.5-9.3-10.5-8.5 0-11 4.1-11.3 12z"/><path d="m310.8 44.8v31.3h-10.6v-28.3c0-6.4-1.4-9.4-7.9-9.4-5.4 0-9.2 1.5-11.2 7.3v30.5h-10.6v-45.8h10.6v5.8c2.6-4.7 8-6.6 14.4-6.6 11.6 0 15.3 5.5 15.3 15.2z"/><path d="m364.8 30.4v42.2c0 12.6-6.5 20.4-24.3 20.4-4.1 0-8.3-0.4-12.4-1.1v-8.5c3.9 0.9 7.8 1.3 11.8 1.3 10.1 0 14.4-3.3 14.4-12.5v-3.2c-2 4.5-5.7 7.2-14.1 7.2-15 0-18.7-9.4-18.7-23.3 0-12.6 3.7-23.3 18.7-23.3 8.6 0 12.4 3.1 14.1 7.5v-6.7zm-10.1 22.4c0-9.2-2-15.1-11.9-15.1-9.4 0-10.4 7.3-10.4 15.1 0 8.5 1.3 15.3 10.4 15.3 9.9 0.1 11.9-5.5 11.9-15.3z"/><path d="m377.3 17.6c0-5.2 1.3-5.7 6-5.7s6 0.5 6 5.7-1.3 5.8-6 5.8-6-0.7-6-5.8zm0.7 12.8h10.6v45.7h-10.6z"/><path d="m442 44.8v31.3h-10.5v-28.3c0-6.4-1.4-9.4-7.9-9.4-5.4 0-9.2 1.5-11.2 7.3v30.5h-10.6v-45.8h10.6v5.8c2.6-4.7 8-6.6 14.4-6.6 11.5 0 15.2 5.5 15.2 15.2z"/><path d="m493.3 55.3-30 2c0.3 7.7 4 11.2 13.1 11.2 5.1-0.1 10.2-1.1 14.9-3.1v8.6c-2.7 1.6-9.3 3-16.8 3-13.9 0-21.9-5.2-21.9-23.7s8-23.7 21.9-23.7c15.8 0 19.1 9 19.1 19.7 0.2 2 0 4-0.3 6zm-9.4-7.1c0-5.7-1.2-10.5-9.3-10.5-8.5 0-11 4.1-11.3 12z"/><path d="m48.8 11.8c3.1 0 5.6 2.5 5.6 5.6s-2.5 5.6-5.6 5.6-5.6-2.5-5.6-5.6c0.1-3.1 2.5-5.6 5.6-5.6zm-37 26.7c3.1 0 5.6 2.5 5.6 5.6s-2.5 5.6-5.6 5.6-5.6-2.5-5.6-5.6c0.1-3.1 2.6-5.6 5.6-5.6zm14.5 43.6c3.1 0 5.6 2.5 5.6 5.6s-2.5 5.6-5.6 5.6-5.6-2.5-5.6-5.6 2.5-5.6 5.6-5.6zm45 0c3.1 0 5.6 2.5 5.6 5.6s-2.5 5.6-5.6 5.6-5.6-2.5-5.6-5.6 2.5-5.6 5.6-5.6zm-14.3-37.2h-16.4l-5 15.5 13.2 9.6 13.2-9.5zm-15.9-1.3 5.7-17.6c-0.4-0.1-0.9-0.2-1.3-0.4l-5.8 18h-19v1.3h18.5l-4.8 14.7-15-10.9c-0.2 0.4-0.5 0.7-0.8 1.1l12.8 9.3 2.6 1.9-0.9 2.5-5 15.5c0.4 0.1 0.9 0.2 1.3 0.4l5.7-17.5 12.5 9.1-14.7 10.7c0.3 0.3 0.6 0.7 0.8 1l15.1-11 15.1 11c0.2-0.4 0.5-0.7 0.8-1l-14.8-10.8 12.5-9.1 0.6 1.7 5.2 15.9c0.4-0.2 0.8-0.3 1.3-0.4l-5.8-18 2.6-1.9 12.7-9.3c-0.3-0.3-0.5-0.7-0.8-1.1l-12.4 9-0.4 0.3-2.3 1.6-4.8-14.7h18.5v-1.4h-19l-5.8-18c-0.4 0.2-0.8 0.3-1.3 0.4l5.7 17.6zm-22.2-5 22.5-16.4c0.2 0.4 0.5 0.7 0.8 1l-22.6 16.5c-0.2-0.4-0.5-0.7-0.7-1.1zm4 40.8-8.7-26.8c0.4-0.1 0.8-0.3 1.2-0.4l8.8 26.8c-0.5 0.1-0.9 0.3-1.3 0.4zm39.6 8.6h-27.3v-1.4h27.3v1c-0.1 0.2-0.1 0.3 0 0.4zm21-35.3-8.7 26.8c-0.4-0.2-0.8-0.3-1.2-0.4l8.7-26.8c0.3 0.1 0.7 0.3 1.2 0.4zm-27.2-30.5 22.5 16.4c-0.3 0.3-0.5 0.7-0.7 1.1l-22.7-16.4c0.3-0.4 0.6-0.7 0.9-1.1zm29.5 16.3c3.1 0 5.6 2.5 5.6 5.6s-2.5 5.6-5.6 5.6-5.6-2.5-5.6-5.6 2.5-5.6 5.6-5.6z" clip-rule="evenodd" fill-rule="evenodd"/></g></svg>
