<?xml version="1.0" encoding="utf-8"?>
<!-- Generator: Adobe Illustrator 25.2.1, SVG Export Plug-In . SVG Version: 6.00 Build 0)  -->
<svg version="1.1" id="图层_1" xmlns="http://www.w3.org/2000/svg" xmlns:xlink="http://www.w3.org/1999/xlink" x="0px" y="0px"
	 viewBox="0 0 212 35" style="enable-background:new 0 0 212 35;" xml:space="preserve">
<style type="text/css">
	.st0{fill:#0041CE;}
	.st1{fill-rule:evenodd;clip-rule:evenodd;fill:#0041CE;}
</style>
<path class="st0" d="M50.4,3.6h-4.2v13h-2.9v-13H39V1h11.4V3.6z"/>
<path class="st0" d="M57.7,1c4.5,0,7.6,1.3,7.6,7.8c0,6-3,7.8-7.6,7.8h-5V1H57.7z M57.5,14.1c3,0,4.7-1.1,4.7-5.2
	c0-4.3-1.7-5.3-4.7-5.3h-2v10.6h2V14.1z"/>
<path class="st0" d="M78.6,11.1l-8,0.5c0.1,2,1.1,3,3.5,3c1.4,0,2.7-0.3,4-0.8V16c-0.7,0.4-2.5,0.8-4.5,0.8c-3.7,0-5.8-1.4-5.8-6.3
	s2.1-6.3,5.8-6.3c4.2,0,5.1,2.4,5.1,5.2C78.7,10,78.6,10.6,78.6,11.1z M76.1,9.2c0-1.5-0.3-2.8-2.5-2.8c-2.3,0-2.9,1.1-3,3.2
	L76.1,9.2z"/>
<path class="st0" d="M92.2,8.3v8.3h-2.8V9.1c0-1.7-0.4-2.5-2.1-2.5c-1.4,0-2.4,0.4-3,1.9v8.1h-2.8V4.5h2.8V6
	c0.7-1.2,2.1-1.7,3.8-1.7C91.2,4.3,92.2,5.7,92.2,8.3z"/>
<path class="st0" d="M106.5,4.5v11.2c0,3.3-1.7,5.4-6.4,5.4c-1.1,0-2.2-0.1-3.3-0.3v-2.3c1,0.2,2.1,0.3,3.1,0.3
	c2.7,0,3.8-0.9,3.8-3.3v-0.8c-0.5,1.2-1.5,1.9-3.7,1.9c-4,0-5-2.5-5-6.2c0-3.3,1-6.2,5-6.2c2.3,0,3.3,0.8,3.7,2V4.5H106.5z
	 M103.8,10.4c0-2.4-0.5-4-3.2-4c-2.5,0-2.8,1.9-2.8,4c0,2.3,0.3,4.1,2.8,4.1C103.3,14.5,103.8,13,103.8,10.4z"/>
<path class="st0" d="M127,8.3v8.3h-2.8V9.1c0-1.7-0.4-2.5-2.1-2.5c-1.4,0-2.4,0.4-3,1.9v8.1h-2.8V4.5h2.8V6c0.7-1.2,2.1-1.7,3.8-1.7
	C126,4.3,127,5.7,127,8.3z"/>
<path class="st0" d="M140.6,11.1l-8,0.5c0.1,2,1.1,3,3.5,3c1.4,0,2.7-0.3,3.9-0.8V16c-0.7,0.4-2.5,0.8-4.5,0.8
	c-3.7,0-5.8-1.4-5.8-6.3s2.1-6.3,5.8-6.3c4.2,0,5.1,2.4,5.1,5.2C140.7,10,140.6,10.6,140.6,11.1z M138.1,9.2c0-1.5-0.3-2.8-2.5-2.8
	c-2.3,0-2.9,1.1-3,3.2L138.1,9.2z"/>
<path class="st0" d="M109.7,1.5c0-1.4,0.3-1.5,1.5-1.5s1.5,0.1,1.5,1.5S112.4,3,111.2,3S109.7,2.9,109.7,1.5z M109.8,4.9h2.7V17
	h-2.7V4.9z"/>
<path class="st1" d="M17,1c1.2,0,2.2,1,2.2,2.2s-1,2.2-2.2,2.2s-2.2-1-2.2-2.2S15.8,1,17,1z M2.2,11.5c1.2,0,2.2,1,2.2,2.2
	s-1,2.2-2.2,2.2S0,14.9,0,13.7S1,11.5,2.2,11.5z M8,28.6c1.2,0,2.2,1,2.2,2.2c0,1.2-1,2.2-2.2,2.2s-2.2-1-2.2-2.2
	C5.8,29.6,6.8,28.6,8,28.6z M26,28.6c1.2,0,2.2,1,2.2,2.2c0,1.2-1,2.2-2.2,2.2s-2.2-1-2.2-2.2C23.7,29.6,24.7,28.6,26,28.6z
	 M20.3,14h-6.5l-2,6.1l5.3,3.8l5.3-3.7L20.3,14z M13.9,13.5l2.3-6.9c-0.2,0-0.4-0.1-0.5-0.2l-2.3,7.1H5.8c0,0.1,0,0.1,0,0.2
	c0,0.1,0,0.2,0,0.3h7.4l-1.9,5.8l-6-4.3c-0.1,0.2-0.2,0.3-0.3,0.4l5.1,3.7l1,0.7l-0.4,1l-2,6.1c0.2,0,0.4,0.1,0.5,0.2l2.3-6.9l5,3.6
	l-5.9,4.2c0.1,0.1,0.2,0.3,0.3,0.4l6-4.3l6,4.3c0.1-0.2,0.2-0.3,0.3-0.4l-5.9-4.2l5-3.6l0.2,0.7l2.1,6.2c0.2-0.1,0.3-0.1,0.5-0.2
	l-2.3-7.1l1-0.7l5.1-3.7c-0.1-0.1-0.2-0.3-0.3-0.4L23.8,19l-0.2,0.1l-0.9,0.6L20.8,14h7.4c0-0.1,0-0.2,0-0.4c0-0.1,0-0.1,0-0.2h-7.6
	l-2.3-7.1c-0.2,0.1-0.3,0.1-0.5,0.2l2.3,6.9L13.9,13.5z M5.1,11.5l9-6.4c0.1,0.2,0.2,0.3,0.3,0.4l-9,6.5C5.3,11.8,5.1,11.7,5.1,11.5
	z M6.7,27.5L3.2,17c0.2,0,0.3-0.1,0.5-0.2l3.5,10.5C7,27.4,6.8,27.5,6.7,27.5z M22.5,30.9H11.6c0,0,0-0.1,0-0.2s0-0.2,0-0.4h10.9
	c0,0.1,0,0.2,0,0.4C22.4,30.8,22.4,30.9,22.5,30.9z M30.8,17.1l-3.5,10.5c-0.2-0.1-0.3-0.1-0.5-0.2l3.5-10.5
	C30.5,16.9,30.6,17,30.8,17.1z M20,5.1l9,6.4c-0.1,0.1-0.2,0.3-0.3,0.4l-9.1-6.4C19.8,5.4,19.9,5.2,20,5.1z M31.8,11.5
	c1.2,0,2.2,1,2.2,2.2s-1,2.2-2.2,2.2s-2.2-1-2.2-2.2S30.5,11.5,31.8,11.5z"/>
<path class="st0" d="M209.2,26.2c0.7,0,1.3,0.2,1.6,0.6s0.5,0.9,0.5,1.7v4.4h-1.5v-4c0-0.5-0.1-0.8-0.2-1c-0.2-0.2-0.4-0.3-0.8-0.3
	c-0.4,0-0.7,0.1-0.9,0.2s-0.4,0.4-0.5,0.8v4.3h-1.5v-4c0-0.5-0.1-0.8-0.2-1c-0.1-0.2-0.4-0.3-0.8-0.3c-0.4,0-0.7,0.1-0.9,0.2
	s-0.4,0.4-0.5,0.8V33H202v-6.5h1.5v0.8c0.2-0.3,0.4-0.5,0.7-0.7c0.3-0.1,0.7-0.2,1.1-0.2c0.5,0,0.9,0.1,1.2,0.3
	c0.3,0.2,0.5,0.4,0.7,0.7c0.2-0.4,0.5-0.6,0.8-0.7C208.3,26.3,208.7,26.2,209.2,26.2z"/>
<path class="st0" d="M200.8,26.2v1.3h-0.2c-0.2,0-0.4,0-0.6,0.1c-0.2,0-0.4,0.1-0.5,0.2c-0.2,0.1-0.3,0.2-0.4,0.4
	c-0.1,0.2-0.2,0.4-0.3,0.7v3.9h-1.5v-6.5h1.5v1.2c0.1-0.3,0.2-0.5,0.4-0.6c0.1-0.2,0.3-0.3,0.5-0.4s0.4-0.2,0.5-0.2
	c0.2,0,0.4,0,0.6,0l0,0V26.2z"/>
<path class="st0" d="M192.6,32.9c-0.5,0-0.9-0.1-1.3-0.2c-0.4-0.1-0.7-0.3-1-0.5c-0.3-0.3-0.5-0.6-0.6-1s-0.2-1-0.2-1.6
	c0-0.7,0.1-1.2,0.2-1.6c0.1-0.4,0.3-0.8,0.6-1c0.3-0.3,0.6-0.4,1-0.5s0.8-0.2,1.3-0.2s0.9,0.1,1.3,0.2c0.4,0.1,0.7,0.3,1,0.5
	c0.3,0.3,0.5,0.6,0.6,1s0.2,1,0.2,1.6c0,0.7-0.1,1.2-0.2,1.6c-0.1,0.4-0.3,0.8-0.6,1c-0.3,0.3-0.6,0.4-1,0.5
	C193.5,32.9,193.1,32.9,192.6,32.9z M192.6,31.8c0.3,0,0.6,0,0.8-0.1s0.4-0.2,0.5-0.4c0.1-0.2,0.2-0.4,0.3-0.7
	c0.1-0.3,0.1-0.6,0.1-1.1c0-0.4,0-0.8-0.1-1c0-0.3-0.1-0.5-0.3-0.7c-0.1-0.2-0.3-0.3-0.5-0.4s-0.4-0.1-0.7-0.1s-0.5,0-0.7,0.1
	s-0.4,0.2-0.5,0.4c-0.1,0.2-0.2,0.4-0.3,0.7c0,0.3-0.1,0.6-0.1,1s0,0.8,0.1,1.1c0.1,0.3,0.1,0.5,0.3,0.7c0.1,0.2,0.3,0.3,0.5,0.4
	C192,31.7,192.3,31.8,192.6,31.8z"/>
<path class="st0" d="M188.5,24.8c-0.2,0-0.4,0-0.6,0.1c-0.1,0-0.2,0.1-0.3,0.3c-0.1,0.1-0.1,0.3-0.2,0.5c0,0.2,0,0.5,0,0.8h1.4v1.2
	h-1.4V33H186v-5.3h-1v-1.2h1v-0.1c0-0.6,0.1-1,0.2-1.4c0.1-0.3,0.3-0.6,0.5-0.8c0.2-0.2,0.5-0.3,0.8-0.4s0.6-0.1,1-0.1
	c0.1,0,0.3,0,0.4,0c0.1,0,0.3,0,0.4,0v1.1c-0.1,0-0.2,0-0.3,0C188.7,24.8,188.6,24.8,188.5,24.8z"/>
<path class="st0" d="M183,27.5v3.1c0,0.2,0,0.4,0,0.5s0.1,0.2,0.1,0.3c0.1,0.1,0.1,0.1,0.3,0.2c0.1,0,0.2,0,0.4,0c0.1,0,0.2,0,0.3,0
	s0.2,0,0.3,0v1.2c-0.1,0-0.3,0-0.4,0c-0.1,0-0.3,0-0.4,0c-0.4,0-0.7,0-1-0.1s-0.5-0.2-0.6-0.3c-0.2-0.2-0.3-0.4-0.3-0.6
	c-0.1-0.3-0.1-0.6-0.1-1.1v-3.2h-0.9v-1.2h0.9v-1.5h1.5v1.5h1.4v1.2H183z"/>
<path class="st0" d="M176.7,26.2c0.5,0,1,0,1.3,0.1c0.4,0.1,0.6,0.2,0.9,0.4c0.2,0.2,0.4,0.4,0.5,0.7c0.1,0.3,0.1,0.5,0.1,0.9v4.5
	h-1.3L178,32c-0.2,0.3-0.4,0.5-0.8,0.7c-0.4,0.2-0.8,0.3-1.3,0.3c-1.5,0-2.2-0.7-2.2-2c0-0.8,0.2-1.3,0.7-1.6
	c0.5-0.3,1.1-0.5,1.9-0.5h1.7v-0.3c0-0.2,0-0.4-0.1-0.5c0-0.1-0.1-0.3-0.2-0.4c-0.1-0.1-0.3-0.2-0.4-0.2s-0.4-0.1-0.7-0.1
	c-0.2,0-0.5,0-0.7,0s-0.5,0.1-0.7,0.1v-1.3c0.2,0,0.5-0.1,0.8-0.1C176.2,26.2,176.4,26.2,176.7,26.2z M176.1,31.8
	c0.5,0,0.8-0.1,1.2-0.3c0.3-0.2,0.5-0.4,0.7-0.7V30h-1.5c-0.5,0-0.8,0.1-1,0.2s-0.3,0.4-0.3,0.8c0,0.3,0.1,0.5,0.2,0.6
	C175.5,31.7,175.8,31.8,176.1,31.8z"/>
<path class="st0" d="M172.1,32.9c-0.6,0-1.1-0.1-1.4-0.4c-0.3-0.3-0.4-0.7-0.4-1.2v-7.6h1.5v7.2c0,0.3,0,0.5,0.1,0.6
	s0.2,0.1,0.4,0.1c0.1,0,0.3,0,0.4,0v1.2C172.6,32.9,172.4,32.9,172.1,32.9z"/>
<path class="st0" d="M163,24.5h2.7c0.6,0,1.1,0.1,1.5,0.2s0.7,0.3,1,0.5c0.2,0.2,0.4,0.5,0.5,0.9s0.2,0.8,0.2,1.3s-0.1,1-0.2,1.3
	c-0.1,0.4-0.3,0.7-0.6,0.9c-0.3,0.2-0.6,0.4-1,0.5s-0.9,0.1-1.5,0.1h-1.1v2.7H163V24.5z M165.5,28.8c0.3,0,0.6,0,0.8-0.1
	c0.2,0,0.4-0.1,0.6-0.3c0.1-0.1,0.2-0.3,0.3-0.5s0.1-0.5,0.1-0.8c0-0.6-0.1-1-0.4-1.2c-0.3-0.2-0.7-0.3-1.4-0.3h-0.9v3.1L165.5,28.8
	L165.5,28.8z"/>
<path class="st0" d="M156.4,27.5v3.1c0,0.2,0,0.4,0,0.5s0.1,0.2,0.1,0.3c0.1,0.1,0.1,0.1,0.3,0.2c0.1,0,0.2,0,0.4,0
	c0.1,0,0.2,0,0.3,0s0.2,0,0.3,0v1.2c-0.1,0-0.3,0-0.4,0c-0.1,0-0.3,0-0.4,0c-0.4,0-0.7,0-1-0.1s-0.5-0.2-0.6-0.3
	c-0.2-0.2-0.3-0.4-0.3-0.6c-0.1-0.3-0.1-0.6-0.1-1.1v-3.2h-1v-1.2h0.9v-1.5h1.5v1.5h1.4v1.2H156.4z"/>
<path class="st0" d="M151.2,26c0.7,0,1.3,0.2,1.6,0.6s0.5,0.9,0.5,1.7v4.4h-1.5v-4c0-0.5-0.1-0.8-0.2-1c-0.2-0.2-0.4-0.3-0.8-0.3
	c-0.4,0-0.7,0.1-0.9,0.2s-0.4,0.4-0.5,0.8v4.3h-1.5v-4c0-0.5-0.1-0.8-0.2-1c-0.1-0.2-0.4-0.3-0.8-0.3c-0.4,0-0.7,0.1-0.9,0.2
	s-0.4,0.4-0.5,0.8v4.4H144v-6.5h1.5v0.8c0.2-0.3,0.4-0.5,0.7-0.7s0.7-0.2,1.1-0.2c0.5,0,0.9,0.1,1.2,0.3c0.3,0.2,0.5,0.4,0.7,0.7
	c0.2-0.4,0.5-0.6,0.8-0.7C150.4,26.1,150.8,26,151.2,26z"/>
<path class="st0" d="M143.1,26.1v6c0,0.4-0.1,0.8-0.2,1.2c-0.1,0.4-0.3,0.7-0.6,0.9c-0.3,0.3-0.6,0.4-1.1,0.6
	c-0.4,0.1-1,0.2-1.6,0.2c-0.3,0-0.6,0-0.9,0c-0.3,0-0.6-0.1-0.8-0.1v-1.2c0.2,0.1,0.5,0.1,0.8,0.1s0.6,0,0.9,0
	c0.7,0,1.2-0.1,1.5-0.4c0.3-0.3,0.5-0.7,0.5-1.4v-0.5c-0.1,0.3-0.4,0.6-0.7,0.8s-0.7,0.3-1.3,0.3c-0.5,0-1-0.1-1.3-0.2
	c-0.3-0.2-0.6-0.4-0.8-0.7c-0.2-0.3-0.3-0.6-0.4-1c-0.1-0.4-0.1-0.9-0.1-1.4c0-0.4,0-0.9,0.1-1.3s0.2-0.7,0.4-1s0.5-0.5,0.8-0.7
	s0.8-0.3,1.3-0.3c0.3,0,0.6,0,0.8,0.1c0.2,0,0.4,0.1,0.6,0.2c0.2,0.1,0.3,0.2,0.4,0.3c0.1,0.1,0.2,0.3,0.3,0.4v-0.9
	C141.7,26.1,143.1,26.1,143.1,26.1z M140,31.5c0.3,0,0.6,0,0.8-0.1s0.4-0.2,0.5-0.4c0.1-0.2,0.2-0.4,0.3-0.7c0-0.3,0.1-0.6,0.1-0.9
	s0-0.6-0.1-0.9c0-0.3-0.1-0.5-0.3-0.7c-0.1-0.2-0.3-0.3-0.5-0.4s-0.5-0.2-0.8-0.2s-0.6,0.1-0.8,0.2s-0.3,0.3-0.4,0.5
	c-0.1,0.2-0.2,0.4-0.2,0.7c0,0.3,0,0.5,0,0.8s0,0.6,0,0.9s0.1,0.5,0.2,0.7c0.1,0.2,0.3,0.4,0.4,0.5C139.4,31.4,139.7,31.5,140,31.5z
	"/>
<path class="st0" d="M127.8,24.5h2.5l1.6,4.9h0.1l1.7-4.9h2.5v8.3h-1.5V26h-0.1l-1.8,5.1h-1.6l-1.8-5.1h-0.1v6.8h-1.5L127.8,24.5
	L127.8,24.5z"/>
<path class="st0" d="M119.9,26.2c0.5,0,1,0,1.3,0.1c0.4,0.1,0.6,0.2,0.9,0.4c0.2,0.2,0.4,0.4,0.5,0.7c0.1,0.3,0.1,0.5,0.1,0.9v4.5
	h-1.3l-0.2-0.8c-0.2,0.3-0.4,0.5-0.8,0.7s-0.8,0.3-1.3,0.3c-1.5,0-2.2-0.7-2.2-2c0-0.8,0.2-1.3,0.7-1.6c0.5-0.3,1.1-0.5,1.9-0.5h1.7
	v-0.3c0-0.2,0-0.4-0.1-0.5c0-0.1-0.1-0.3-0.2-0.4s-0.3-0.2-0.4-0.2c-0.2,0-0.4-0.1-0.7-0.1c-0.2,0-0.5,0-0.7,0s-0.5,0.1-0.7,0.1
	v-1.3c0.2,0,0.5-0.1,0.8-0.1C119.4,26.2,119.7,26.2,119.9,26.2z M119.4,31.8c0.5,0,0.8-0.1,1.2-0.3c0.3-0.2,0.5-0.4,0.7-0.7V30h-1.5
	c-0.5,0-0.8,0.1-1,0.2s-0.3,0.4-0.3,0.8c0,0.3,0.1,0.5,0.2,0.6C118.7,31.7,119,31.8,119.4,31.8z"/>
<path class="st0" d="M114.6,27.5v3.1c0,0.2,0,0.4,0,0.5s0.1,0.2,0.1,0.3c0.1,0.1,0.1,0.1,0.3,0.2c0.1,0,0.2,0,0.4,0
	c0.1,0,0.2,0,0.3,0c0.1,0,0.2,0,0.3,0v1.2c-0.1,0-0.3,0-0.4,0s-0.3,0-0.4,0c-0.4,0-0.7,0-1-0.1s-0.5-0.2-0.6-0.3
	c-0.2-0.2-0.3-0.4-0.3-0.6c-0.1-0.3-0.1-0.6-0.1-1.1v-3.2h-0.9v-1.2h0.9v-1.5h1.5v1.5h1.4v1.2H114.6z"/>
<path class="st0" d="M108.3,26.2c0.5,0,1,0,1.3,0.1c0.4,0.1,0.6,0.2,0.9,0.4c0.2,0.2,0.4,0.4,0.5,0.7c0.1,0.3,0.1,0.5,0.1,0.9v4.5
	h-1.3l-0.2-0.8c-0.2,0.3-0.4,0.5-0.8,0.7S108,33,107.5,33c-1.5,0-2.2-0.7-2.2-2c0-0.8,0.2-1.3,0.7-1.6c0.5-0.3,1.1-0.5,1.9-0.5h1.7
	v-0.3c0-0.2,0-0.4-0.1-0.5c0-0.1-0.1-0.3-0.2-0.4s-0.3-0.2-0.4-0.2s-0.4-0.1-0.7-0.1c-0.2,0-0.5,0-0.7,0s-0.5,0.1-0.7,0.1v-1.3
	c0.2,0,0.5-0.1,0.8-0.1C107.8,26.2,108.1,26.2,108.3,26.2z M107.8,31.8c0.5,0,0.8-0.1,1.2-0.3c0.3-0.2,0.5-0.4,0.7-0.7V30h-1.5
	c-0.5,0-0.8,0.1-1,0.2s-0.3,0.4-0.3,0.8c0,0.3,0.1,0.5,0.2,0.6C107.1,31.7,107.4,31.8,107.8,31.8z"/>
<path class="st0" d="M100.2,24.5c0.6,0,1.2,0.1,1.7,0.2s0.9,0.3,1.3,0.6c0.4,0.3,0.6,0.7,0.8,1.3c0.2,0.5,0.3,1.2,0.3,2.1
	c0,0.8-0.1,1.5-0.3,2c-0.2,0.5-0.5,1-0.8,1.3c-0.4,0.3-0.8,0.5-1.3,0.7c-0.5,0.1-1,0.2-1.7,0.2h-2.7v-8.3h2.7V24.5z M100.1,31.5
	c0.4,0,0.8,0,1.1-0.1c0.3-0.1,0.6-0.2,0.8-0.4c0.2-0.2,0.4-0.5,0.5-0.9s0.2-0.8,0.2-1.4s-0.1-1-0.2-1.4s-0.3-0.7-0.5-0.9
	c-0.2-0.2-0.5-0.4-0.8-0.4c-0.3-0.1-0.7-0.1-1-0.1H99v5.6C99,31.5,100.1,31.5,100.1,31.5z"/>
<path class="st0" d="M92.5,32.9c-0.6,0-1.1-0.1-1.4-0.4c-0.3-0.3-0.4-0.7-0.4-1.2v-7.6h1.5v7.2c0,0.3,0,0.5,0.1,0.6s0.2,0.1,0.4,0.1
	c0.1,0,0.3,0,0.4,0v1.2C93,32.9,92.8,32.9,92.5,32.9z"/>
<path class="st0" d="M86,26.2c0.5,0,1,0,1.3,0.1c0.4,0.1,0.6,0.2,0.9,0.4c0.2,0.2,0.4,0.4,0.5,0.7c0.1,0.3,0.1,0.5,0.1,0.9v4.5h-1.3
	L87.4,32c-0.2,0.3-0.4,0.5-0.8,0.7S85.8,33,85.3,33c-1.5,0-2.2-0.7-2.2-2c0-0.8,0.2-1.3,0.7-1.6c0.5-0.3,1.1-0.5,1.9-0.5h1.7v-0.3
	c0-0.2,0-0.4-0.1-0.5c0-0.1-0.1-0.3-0.2-0.4s-0.3-0.2-0.4-0.2c-0.2,0-0.4-0.1-0.7-0.1c-0.2,0-0.5,0-0.7,0s-0.5,0.1-0.7,0.1v-1.3
	c0.2,0,0.5-0.1,0.8-0.1C85.6,26.2,85.8,26.2,86,26.2z M85.5,31.8c0.5,0,0.8-0.1,1.2-0.3c0.3-0.2,0.5-0.4,0.7-0.7V30h-1.5
	c-0.5,0-0.8,0.1-1,0.2s-0.3,0.4-0.3,0.8c0,0.3,0.1,0.5,0.2,0.6C84.9,31.7,85.2,31.8,85.5,31.8z"/>
<path class="st0" d="M80.7,25.3c-0.2,0-0.3,0-0.4,0s-0.2-0.1-0.3-0.1c0-0.1,0-0.1-0.1-0.2c0-0.1,0-0.2,0-0.4s0-0.3,0-0.4
	S80,24,80,24c0.1-0.1,0.2-0.1,0.3-0.1c0.1,0,0.3,0,0.4,0c0.2,0,0.3,0,0.4,0s0.2,0.1,0.3,0.1c0.1,0,0.1,0.1,0.1,0.2s0,0.2,0,0.4
	s0,0.3,0,0.4s-0.1,0.2-0.1,0.3c-0.1,0.1-0.2,0.1-0.3,0.1C81.1,25.3,80.9,25.3,80.7,25.3z M80,26.3h1.5v6.5H80V26.3z"/>
<path class="st0" d="M78.9,26.2v1.3h-0.2c-0.2,0-0.4,0-0.6,0.1c-0.2,0-0.4,0.1-0.5,0.2c-0.2,0.1-0.3,0.2-0.4,0.4
	c-0.1,0.2-0.2,0.4-0.3,0.7v3.9h-1.5v-6.5h1.5v1.2c0.1-0.3,0.2-0.5,0.4-0.6c0.1-0.2,0.3-0.3,0.5-0.4s0.4-0.2,0.5-0.2
	c0.2,0,0.4,0,0.6,0l0,0V26.2z"/>
<path class="st0" d="M72.7,27.5v3.1c0,0.2,0,0.4,0,0.5s0.1,0.2,0.1,0.3c0.1,0.1,0.1,0.1,0.3,0.2c0.1,0,0.2,0,0.4,0
	c0.1,0,0.2,0,0.3,0c0.1,0,0.2,0,0.3,0v1.2c-0.1,0-0.3,0-0.4,0s-0.3,0-0.4,0c-0.4,0-0.7,0-1-0.1s-0.5-0.2-0.6-0.3
	c-0.2-0.2-0.3-0.4-0.3-0.6c-0.1-0.3-0.1-0.6-0.1-1.1v-3.2h-0.9v-1.2h0.9v-1.5h1.5v1.5h1.4v1.2H72.7z"/>
<path class="st0" d="M66.9,32.9c-0.4,0-0.7,0-1.1-0.1c-0.4,0-0.7-0.1-0.9-0.1v-1.3c0.3,0.1,0.6,0.2,0.9,0.2c0.4,0,0.7,0.1,1,0.1
	c0.4,0,0.7-0.1,0.9-0.2c0.2-0.1,0.3-0.3,0.3-0.6c0-0.2,0-0.3-0.1-0.4c0-0.1-0.1-0.2-0.2-0.3c-0.1-0.1-0.2-0.1-0.4-0.2
	c-0.2-0.1-0.4-0.1-0.7-0.2c-0.4-0.1-0.6-0.2-0.9-0.3s-0.4-0.2-0.5-0.4c-0.1-0.1-0.2-0.3-0.3-0.5c0-0.2-0.1-0.4-0.1-0.7
	c0-0.6,0.2-1,0.6-1.4c0.4-0.3,1-0.5,1.9-0.5c0.3,0,0.7,0,1,0.1c0.3,0,0.6,0.1,0.7,0.2l-0.1,1.2c-0.2-0.1-0.4-0.1-0.7-0.2
	c-0.3,0-0.6-0.1-0.9-0.1c-0.4,0-0.7,0.1-0.9,0.2c-0.2,0.1-0.3,0.3-0.3,0.6c0,0.1,0,0.2,0,0.3c0,0.1,0.1,0.1,0.2,0.2s0.2,0.1,0.4,0.2
	c0.2,0,0.4,0.1,0.6,0.2c0.4,0.1,0.7,0.2,0.9,0.3c0.2,0.1,0.4,0.2,0.6,0.4c0.1,0.1,0.2,0.3,0.3,0.5c0.1,0.2,0.1,0.5,0.1,0.8
	c0,0.7-0.2,1.2-0.7,1.5C68.4,32.7,67.8,32.9,66.9,32.9z"/>
<path class="st0" d="M63.4,26.3v6.5H62L61.9,32c-0.2,0.4-0.5,0.6-0.8,0.7c-0.3,0.1-0.7,0.2-1.2,0.2c-0.4,0-0.8,0-1-0.1
	c-0.3-0.1-0.5-0.2-0.7-0.4s-0.3-0.4-0.4-0.7c-0.1-0.3-0.1-0.6-0.1-0.9v-4.5h1.5v4c0,0.2,0,0.4,0,0.6s0.1,0.3,0.2,0.4
	c0.1,0.1,0.2,0.2,0.3,0.2c0.1,0.1,0.3,0.1,0.6,0.1c0.4,0,0.7-0.1,0.9-0.2c0.3-0.1,0.5-0.4,0.6-0.8v-4.3
	C61.8,26.3,63.4,26.3,63.4,26.3z"/>
<path class="st0" d="M55.9,23.7v9.1h-1.3l-0.1-0.9c-0.1,0.3-0.4,0.6-0.7,0.8S53,33,52.5,33s-1-0.1-1.3-0.2c-0.3-0.2-0.6-0.4-0.8-0.7
	S50.1,31.4,50,31c-0.1-0.4-0.1-0.9-0.1-1.4s0-0.9,0.1-1.3s0.2-0.8,0.4-1.1c0.2-0.3,0.5-0.5,0.8-0.7s0.8-0.3,1.3-0.3
	c0.3,0,0.6,0,0.8,0.1c0.2,0,0.4,0.1,0.6,0.2c0.2,0.1,0.3,0.2,0.4,0.3s0.2,0.3,0.3,0.4v-3.6L55.9,23.7L55.9,23.7z M52.8,31.8
	c0.3,0,0.6,0,0.8-0.1s0.4-0.2,0.5-0.4c0.1-0.2,0.2-0.4,0.3-0.7c0-0.3,0.1-0.6,0.1-0.9s0-0.6-0.1-0.9c0-0.3-0.1-0.5-0.3-0.7
	c-0.1-0.2-0.3-0.3-0.5-0.4s-0.5-0.2-0.8-0.2s-0.6,0.1-0.8,0.2s-0.3,0.3-0.4,0.5c-0.1,0.2-0.2,0.4-0.2,0.7c0,0.3,0,0.5,0,0.8
	s0,0.6,0,0.9s0.1,0.5,0.2,0.7c0.1,0.2,0.3,0.3,0.4,0.5C52.2,31.7,52.4,31.8,52.8,31.8z"/>
<path class="st0" d="M46.1,26.2c0.4,0,0.7,0,1,0.1s0.5,0.2,0.7,0.4c0.2,0.2,0.3,0.4,0.4,0.7c0.1,0.3,0.1,0.6,0.1,0.9v4.4h-1.5v-4
	c0-0.5-0.1-0.8-0.2-1c-0.1-0.2-0.4-0.3-0.9-0.3c-0.4,0-0.7,0.1-1,0.2s-0.5,0.4-0.6,0.8v4.3h-1.5v-6.5H44V27c0.2-0.3,0.5-0.6,0.8-0.7
	C45.2,26.3,45.6,26.2,46.1,26.2z"/>
<path class="st0" d="M39,24.5h1.6v8.3H39V24.5z"/>
</svg>
