<svg version="1.1" viewBox="0 0 20 20" xmlns="http://www.w3.org/2000/svg"><circle cx="10" cy="10" r="9.2" fill="none" stroke="#fff"/><path d="m14.8 7.6v0.3c0 3.3-2.5 7-7 7-1.4 0-2.7-0.4-3.8-1.1h0.6c1.1 0 2.2-0.4 3.1-1.1-1.1 0-2-0.7-2.3-1.7h0.5c0.2 0 0.4 0 0.6-0.1-1.1-0.2-2-1.2-2-2.4 0.3 0.2 0.7 0.3 1.1 0.3-0.7-0.4-1.1-1.2-1.1-2 0-0.5 0.1-0.9 0.3-1.2 1.2 1.5 3.1 2.4 5.1 2.5 0-0.2-0.1-0.4-0.1-0.6 0-1.4 1.1-2.5 2.5-2.5 0.7 0 1.3 0.3 1.8 0.8 0.6-0.1 1.1-0.3 1.6-0.6-0.2 0.6-0.6 1.1-1.1 1.4 0.5-0.1 1-0.2 1.4-0.4-0.3 0.6-0.8 1-1.2 1.4z" fill="#fff"/></svg>
